<svg width="203" height="38" viewBox="0 0 203 38" fill="none" xmlns="http://www.w3.org/2000/svg">
<path d="M4.12305 25.859V18.7785L6.59677 20.2151V24.4224L9.07048 25.859V18.7785L4.12305 15.9053V11.5955L11.5442 15.9053V20.2151L15.2548 22.3701V23.8067L7.83362 28.1165L4.12305 25.859ZM16.4916 32.9394L10.3073 29.3479L16.4916 25.7564L22.6759 29.3479L16.4916 32.9394ZM26.3865 24.4224V20.2151L28.8602 18.7785V25.859L25.1496 28.0139L17.7285 23.7041V22.2675L21.439 20.1125V15.8027L28.8602 11.4928V15.8027L23.9128 18.6759V25.7564L26.3865 24.4224ZM25.1496 9.54315L18.9653 13.0321V18.7785L16.4916 20.2151L14.0179 18.7785V13.0321L7.83362 9.54315L12.7811 6.66992L16.4916 8.82484L20.2022 6.66992L25.1496 9.54315Z" fill="white"/>
<path d="M16.4914 0L0 9.4406V28.4244L16.4914 37.865L32.9828 28.4244V9.4406L16.4914 0ZM16.4914 35.5049L2.06143 27.1931V10.5694L16.4914 2.25753L30.9214 10.5694V27.1931L16.4914 35.5049Z" fill="white"/>
<path d="M47.7216 13.8535H41.3311H41.125V14.0587V23.9099V24.1151H41.3311H47.1031C48.5461 24.1151 50.0922 24.0125 51.226 23.2942C51.7414 22.9864 53.4936 21.755 53.4936 18.8817C53.4936 17.3425 52.9782 16.1111 52.0506 15.2901C50.8137 13.9561 48.9584 13.8535 47.7216 13.8535ZM50.8137 18.8817C50.8137 19.6 50.7106 20.421 49.9891 21.0367C49.5768 21.4471 48.7523 21.8576 47.1031 21.8576H43.9079V16.0084H47.8246C49.783 16.0084 50.8137 16.932 50.8137 18.8817Z" fill="white"/>
<path d="M59.3688 21.8577V19.7027C60.6057 19.7027 61.5333 19.7027 63.904 19.7027C63.904 18.9844 63.904 18.3687 63.904 17.6504C62.7702 17.6504 62.1518 17.6504 59.3688 17.6504V15.8033C62.3579 15.8033 64.2132 15.8033 67.2023 15.8033C67.2023 15.085 67.2023 14.4693 67.2023 13.751C54.8337 13.751 69.1606 13.751 56.8951 13.751H56.689V13.9562V23.8074V24.0126H56.8951C69.2637 24.0126 54.8337 24.0126 67.3053 24.0126C67.3053 23.1917 67.3053 22.576 67.3053 21.8577C64.3163 21.8577 62.3579 21.8577 59.3688 21.8577Z" fill="white"/>
<path d="M70.5001 13.8535H70.397V13.9561V23.8072V24.0125H70.5001H72.8707H73.0768V23.8072V20.3183H76.9935H77.1997V20.2157V18.3686V18.1634H76.9935H73.0768V16.0084H80.498H80.7041V15.8032V13.9561V13.8535H80.498H70.5001Z" fill="white"/>
<path d="M82.6627 13.8535H82.4565V13.9561V23.8072V24.0125H82.6627H84.9303H85.1364V23.8072V13.9561V13.8535H84.9303H82.6627Z" fill="white"/>
<path d="M95.341 13.9561L95.1349 13.8535H92.8673H92.7642L92.6612 13.9561L87.0953 23.8073L86.8892 24.1151H87.1984H89.4659H89.569L89.6721 24.0125L90.7028 21.9602H96.784L97.9178 24.0125L98.0209 24.1151H98.1239H100.701H101.01L100.804 23.8073L95.341 13.9561ZM95.7533 19.7026H92.0427L93.898 16.3163L95.7533 19.7026Z" fill="white"/>
<path d="M112.76 13.8535H112.553V14.0587V19.1893L112.656 20.4206C112.244 20.0102 112.141 19.9076 112.038 19.8049C112.038 19.8049 111.935 19.7023 111.832 19.7023L104.926 13.9561H104.823H104.72H103.174H102.968V14.1614V24.012V24.2172H103.174H105.235H105.441V24.012V18.6762C105.441 18.471 105.441 18.3684 105.441 18.1632V18.0605V17.9579V17.6501C105.545 17.7527 105.751 17.9579 105.854 17.9579L105.957 18.0605L113.172 24.1146H113.275H113.378H114.924H115.13V23.9094V14.0587V13.8535H114.924H112.76Z" fill="white"/>
<path d="M116.882 13.8535H116.676V13.9561V15.8032V16.0084H116.882H121.211V23.8072V24.0125H121.418H123.685H123.891V23.8072V16.0084H128.22H128.426V15.8032V13.9561V13.8535H128.22H116.882Z" fill="white"/>
<path d="M141.929 13.8525H135.126C134.611 13.8525 133.683 13.8525 133.065 14.3656C132.446 14.9813 132.446 15.9048 132.446 16.3153V21.446C132.446 21.8565 132.446 22.8827 133.065 23.3957C133.58 23.9088 134.508 23.9088 135.126 23.9088H141.929C142.444 23.9088 143.372 23.9088 143.99 23.3957C144.609 22.78 144.609 21.8565 144.609 21.446V18.1624V17.9571H144.403H138.424H138.218V18.1624V19.8042V20.0094H138.424H141.929V21.8565H135.126V16.0074H141.826V16.7258H144.506V16.5205V16.2127C144.506 15.6996 144.506 14.8787 143.887 14.263C143.372 13.8525 142.341 13.8525 141.929 13.8525Z" fill="white"/>
<path d="M154.504 13.9551L154.297 13.8525H152.03H151.927L151.824 13.9551L146.258 23.8063L146.052 24.1142H146.361H148.629H148.732L148.835 24.0115L149.865 21.9592H155.947L157.08 24.0115L157.183 24.1142H157.287H159.863H160.172L159.966 23.8063L154.504 13.9551ZM155.019 19.7017H151.308L153.164 16.3153L155.019 19.7017Z" fill="white"/>
<path d="M173.469 13.8525L173.366 13.9551L168.934 19.7017L164.398 13.9551L164.295 13.8525H164.192H162.337H162.131V14.0578V23.9089V24.1142H162.337H164.192H164.398V23.9089V17.8546V17.6493C164.501 17.752 164.501 17.8546 164.605 17.9572L168.315 22.8828L168.418 22.9854H168.521H168.934H169.037L169.14 22.8828L172.85 17.9572C172.85 17.9572 172.953 17.8546 173.056 17.752V17.8546V23.9089V24.1142H173.263H175.324H175.53V23.9089V14.0578V13.8525H175.324H173.469Z" fill="white"/>
<path d="M181.096 21.8566V19.7016H185.528H185.734V19.4964V17.8545V17.6493H185.528H181.096V15.9049H188.723H188.929V15.6996V13.9551V13.8525H188.723H178.622H178.416V13.9551V23.8063V24.0115H178.622H188.826H189.032V23.8063V22.0618V21.8566H188.826H181.096Z" fill="white"/>
<path d="M201.813 18.265C201.298 17.7519 200.474 17.7519 199.752 17.7519H193.774V16.0075H199.855V16.6232H202.226V16.1101C202.226 15.8022 202.226 14.8787 201.71 14.3656C201.195 13.9552 200.371 13.8525 199.752 13.8525H193.877C193.052 13.8525 192.434 14.0578 192.022 14.3656C191.403 14.8787 191.403 15.9049 191.403 16.4179V17.4441C191.403 17.8546 191.403 18.8807 192.022 19.4964C192.537 19.9069 193.362 20.0095 193.877 20.0095H200.061V21.9592H193.877V21.0356H191.506V21.3435V21.5487C191.506 21.9592 191.506 22.9853 192.125 23.4984C192.64 24.0115 193.465 24.0115 193.98 24.0115H200.164C200.474 24.0115 201.401 24.0115 201.917 23.4984C202.329 23.0879 202.535 22.3696 202.535 21.7539V20.0095C202.432 19.2912 202.226 18.5729 201.813 18.265Z" fill="white"/>
</svg>
