<svg width="228" height="43" viewBox="0 0 228 43" fill="none" xmlns="http://www.w3.org/2000/svg">
<path d="M4.72095 29.0896V21.1248L7.50366 22.7408V27.4736L10.2864 29.0896V21.1248L4.72095 17.8926V13.0444L13.0691 17.8926V22.7408L17.2431 25.1649V26.781L8.89501 31.6291L4.72095 29.0896ZM18.6345 37.0545L11.6777 33.0143L18.6345 28.9742L25.5912 33.0143L18.6345 37.0545ZM29.7653 27.4736V22.7408L32.548 21.1248V29.0896L28.3739 31.5137L20.0258 26.6655V25.0495L24.1999 22.6254V17.7772L32.548 12.929V17.7772L26.9826 21.0093V28.9742L29.7653 27.4736ZM28.3739 10.7358L21.4172 14.6605V21.1248L18.6345 22.7408L15.8518 21.1248V14.6605L8.89501 10.7358L14.4604 7.50366L18.6345 9.92774L22.8085 7.50366L28.3739 10.7358Z" fill="white"/>
<path d="M18.6344 0L0.0830078 10.6198V31.9749L18.6344 42.5947L37.1857 31.9749V10.6198L18.6344 0ZM18.6344 39.9398L2.40193 30.5897V11.8896L18.6344 2.53952L34.8668 11.8896V30.5897L18.6344 39.9398Z" fill="white"/>
<path d="M53.7653 15.5842H46.5766H46.3447V15.8151V26.8968V27.1276H46.5766H53.0696C54.6928 27.1276 56.432 27.0122 57.7074 26.2042C58.2872 25.8579 60.2582 24.4726 60.2582 21.2405C60.2582 19.509 59.6785 18.1238 58.635 17.2003C57.2436 15.6997 55.1566 15.5842 53.7653 15.5842ZM57.2436 21.2405C57.2436 22.0485 57.1277 22.972 56.3161 23.6646C55.8523 24.1263 54.9247 24.5881 53.0696 24.5881H49.4753V18.0083H53.8812C56.0842 18.0083 57.2436 19.0472 57.2436 21.2405Z" fill="white"/>
<path d="M66.8671 24.5878V22.1637C68.2585 22.1637 69.302 22.1637 71.9688 22.1637C71.9688 21.3556 71.9688 20.663 71.9688 19.855C70.6933 19.855 69.9977 19.855 66.8671 19.855V17.7772C70.2296 17.7772 72.3166 17.7772 75.679 17.7772C75.679 16.9691 75.679 16.2765 75.679 15.4685C61.7655 15.4685 77.882 15.4685 64.0844 15.4685H63.8525V15.6994V26.781V27.0119H64.0844C77.998 27.0119 61.7655 27.0119 75.795 27.0119C75.795 26.0884 75.795 25.3958 75.795 24.5878C72.4325 24.5878 70.2296 24.5878 66.8671 24.5878Z" fill="white"/>
<path d="M79.3887 15.5842H79.2727V15.6997V26.7813V27.0121H79.3887H82.0554H82.2873V26.7813V22.8565H86.6932H86.9251V22.7411V20.6633V20.4324H86.6932H82.2873V18.0083H90.6354H90.8673V17.7775V15.6997V15.5842H90.6354H79.3887Z" fill="white"/>
<path d="M93.0708 15.5842H92.8389V15.6997V26.7813V27.0121H93.0708H95.6216H95.8535V26.7813V15.6997V15.5842H95.6216H93.0708Z" fill="white"/>
<path d="M107.333 15.6997L107.101 15.5842H104.55H104.434L104.318 15.6997L98.0571 26.7813L97.8252 27.1276H98.173H100.724H100.84L100.956 27.0122L102.115 24.7035H108.956L110.231 27.0122L110.347 27.1276H110.463H113.362H113.71L113.478 26.7813L107.333 15.6997ZM107.797 22.164H103.622L105.71 18.3546L107.797 22.164Z" fill="white"/>
<path d="M126.927 15.5842H126.695V15.8151V21.5865L126.811 22.9716C126.348 22.5099 126.232 22.3945 126.116 22.279C126.116 22.279 126 22.1636 125.884 22.1636L118.115 15.6996H117.999H117.883H116.144H115.912V15.9305V27.0116V27.2424H116.144H118.463H118.695V27.0116V21.0093C118.695 20.7785 118.695 20.663 118.695 20.4322V20.3168V20.2013V19.8551C118.811 19.9705 119.043 20.2013 119.159 20.2013L119.275 20.3168L127.391 27.127H127.507H127.623H129.362H129.594V26.8962V15.8151V15.5842H129.362H126.927V15.5842Z" fill="white"/>
<path d="M131.565 15.5842H131.333V15.6997V17.7775V18.0083H131.565H136.435V26.7813V27.0121H136.667H139.218H139.449V26.7813V18.0083H144.319H144.551V17.7775V15.6997V15.5842H144.319H131.565Z" fill="white"/>
<path d="M159.74 15.5837H152.088C151.508 15.5837 150.464 15.5837 149.769 16.1609C149.073 16.8535 149.073 17.8924 149.073 18.3541V24.1257C149.073 24.5875 149.073 25.7418 149.769 26.319C150.348 26.8961 151.392 26.8961 152.088 26.8961H159.74C160.32 26.8961 161.363 26.8961 162.059 26.319C162.755 25.6264 162.755 24.5875 162.755 24.1257V20.4319V20.201H162.523H155.798H155.566V20.4319V22.2788V22.5097H155.798H159.74V24.5875H152.088V18.0078H159.624V18.8159H162.639V18.585V18.2387C162.639 17.6615 162.639 16.7381 161.943 16.0455C161.363 15.5837 160.204 15.5837 159.74 15.5837Z" fill="white"/>
<path d="M173.885 15.6992L173.654 15.5837H171.103H170.987L170.871 15.6992L164.61 26.7808L164.378 27.1271H164.726H167.277H167.393L167.508 27.0117L168.668 24.703H175.509L176.784 27.0117L176.9 27.1271H177.016H179.915H180.262L180.031 26.7808L173.885 15.6992ZM174.465 22.1635H170.291L172.378 18.3541L174.465 22.1635Z" fill="white"/>
<path d="M195.22 15.5837L195.104 15.6992L190.118 22.1635L185.017 15.6992L184.901 15.5837H184.785H182.698H182.466V15.8146V26.8963V27.1271H182.698H184.785H185.017V26.8963V20.0857V19.8548C185.133 19.9702 185.133 20.0857 185.249 20.2011L189.423 25.7419L189.538 25.8574H189.654H190.118H190.234L190.35 25.7419L194.524 20.2011C194.524 20.2011 194.64 20.0857 194.756 19.9702V20.0857V26.8963V27.1271H194.988H197.307H197.539V26.8963V15.8146V15.5837H197.307H195.22V15.5837Z" fill="white"/>
<path d="M203.8 24.5875V22.1634H208.785H209.017V21.9326V20.0856V19.8548H208.785H203.8V17.8924H212.38H212.612V17.6615V15.6992V15.5837H212.38H201.017H200.785V15.6992V26.7808V27.0116H201.017H212.496H212.728V26.7808V24.8184V24.5875H212.496H203.8Z" fill="white"/>
<path d="M227.105 20.5474C226.525 19.9702 225.597 19.9702 224.786 19.9702H218.061V18.0078H224.902V18.7004H227.569V18.1233C227.569 17.777 227.569 16.7381 226.989 16.1609C226.409 15.6992 225.482 15.5837 224.786 15.5837H218.177C217.249 15.5837 216.554 15.8146 216.09 16.1609C215.394 16.7381 215.394 17.8924 215.394 18.4696V19.6239C215.394 20.0856 215.394 21.24 216.09 21.9326C216.67 22.3943 217.597 22.5097 218.177 22.5097H225.134V24.703H218.177V23.6641H215.51V24.0104V24.2412C215.51 24.703 215.51 25.8573 216.206 26.4345C216.786 27.0116 217.713 27.0116 218.293 27.0116H225.25C225.597 27.0116 226.641 27.0116 227.221 26.4345C227.684 25.9727 227.916 25.1647 227.916 24.4721V22.5097C227.8 21.7017 227.569 20.8937 227.105 20.5474Z" fill="white"/>
</svg>
