<svg width="31" height="31" viewBox="0 0 31 31" fill="none" xmlns="http://www.w3.org/2000/svg">
<g clip-path="url(#clip0_147_4811)">
<path d="M25.4759 5.42702C23.5698 4.55 21.5258 3.90385 19.3886 3.53378C19.3497 3.52664 19.3108 3.54449 19.2908 3.58018C19.0279 4.04902 18.7367 4.66066 18.5328 5.14141C16.2342 4.79633 13.9473 4.79633 11.6958 5.14141C11.4919 4.64998 11.1901 4.04902 10.9261 3.58018C10.906 3.54568 10.8671 3.52783 10.8282 3.53378C8.69225 3.90267 6.64824 4.54882 4.74095 5.42702C4.72444 5.43415 4.71028 5.44606 4.70089 5.46152C0.82383 11.2697 -0.238259 16.9352 0.282766 22.5304C0.285124 22.5578 0.300448 22.584 0.321667 22.6006C2.87964 24.4843 5.35748 25.6279 7.7893 26.3859C7.82822 26.3978 7.86945 26.3835 7.89422 26.3514C8.46947 25.5636 8.98225 24.733 9.42191 23.8596C9.44786 23.8084 9.42309 23.7477 9.37006 23.7275C8.5567 23.4181 7.78222 23.0409 7.03722 22.6125C6.9783 22.578 6.97358 22.4935 7.02779 22.453C7.18456 22.3352 7.34138 22.2127 7.49108 22.0889C7.51816 22.0663 7.5559 22.0615 7.58775 22.0758C12.4821 24.3165 17.7807 24.3165 22.6173 22.0758C22.6491 22.0604 22.6869 22.0651 22.7151 22.0877C22.8649 22.2115 23.0216 22.3352 23.1796 22.453C23.2338 22.4935 23.2303 22.578 23.1713 22.6125C22.4263 23.0492 21.6519 23.4181 20.8373 23.7263C20.7843 23.7466 20.7607 23.8084 20.7867 23.8596C21.2358 24.7318 21.7485 25.5624 22.3132 26.3502C22.3368 26.3835 22.3792 26.3978 22.4181 26.3859C24.8617 25.6279 27.3395 24.4843 29.8975 22.6006C29.9199 22.584 29.9341 22.559 29.9364 22.5316C30.56 16.0629 28.892 10.4439 25.5148 5.46271C25.5065 5.44606 25.4924 5.43415 25.4759 5.42702ZM10.1528 19.1235C8.67927 19.1235 7.46513 17.767 7.46513 16.101C7.46513 14.435 8.65573 13.0785 10.1528 13.0785C11.6616 13.0785 12.864 14.447 12.8404 16.101C12.8404 17.767 11.6498 19.1235 10.1528 19.1235ZM20.09 19.1235C18.6165 19.1235 17.4024 17.767 17.4024 16.101C17.4024 14.435 18.5929 13.0785 20.09 13.0785C21.5988 13.0785 22.8012 14.447 22.7776 16.101C22.7776 17.767 21.5988 19.1235 20.09 19.1235Z" fill="white"/>
</g>
<defs>
<clipPath id="clip0_147_4811">
<rect width="29.906" height="29.9885" fill="white" transform="translate(0.15918 0.234619)"/>
</clipPath>
</defs>
</svg>
