<svg width="42" height="26" viewBox="0 0 42 26" fill="none" xmlns="http://www.w3.org/2000/svg">
<path d="M23.0424 24.692L40.398 6.22886C40.6859 5.92561 40.9144 5.56483 41.0704 5.16732C41.2263 4.76981 41.3066 4.34344 41.3066 3.91282C41.3066 3.48219 41.2263 3.05582 41.0704 2.65831C40.9144 2.2608 40.6859 1.90002 40.398 1.59677C39.8225 0.989212 39.0439 0.648193 38.2324 0.648193C37.4209 0.648193 36.6423 0.989212 36.0668 1.59677L20.7079 17.7439L5.50257 1.59677C4.92703 0.98921 4.14848 0.648192 3.33696 0.648192C2.52544 0.648192 1.74689 0.98921 1.17135 1.59677C0.881106 1.89888 0.650199 2.25916 0.492013 2.65672C0.333827 3.05428 0.251508 3.48122 0.249821 3.91281C0.251508 4.34441 0.333826 4.77135 0.492013 5.16891C0.650199 5.56647 0.881106 5.92675 1.17135 6.22886L18.5269 24.692C18.8146 25.0231 19.1637 25.2874 19.5523 25.4681C19.9408 25.6488 20.3605 25.7422 20.7847 25.7422C21.2089 25.7422 21.6285 25.6488 22.0171 25.4681C22.4057 25.2874 22.7548 25.0231 23.0424 24.692V24.692Z" fill="white"/>
</svg>
