<svg width="2080" height="97" viewBox="0 0 2080 97" fill="none" xmlns="http://www.w3.org/2000/svg">
<path fill-rule="evenodd" clip-rule="evenodd" d="M0.975586 0.352051C59.5713 38.2466 189.952 79.6851 266.225 79.6851C298.925 79.6851 334.171 65.0518 371.439 49.5786C415.562 31.2603 462.521 11.7646 511.444 13.9814C553.258 15.876 586.771 33.1045 622.312 51.3765C663.481 72.5405 707.373 95.1045 770.042 96.8604C773.271 96.9507 776.438 96.9966 779.549 97H0.975586V0.352051ZM780.269 97H2079.02V0.352051C2066.99 0.352051 2047.84 13.2168 2023.53 29.5527C1981.25 57.959 1923.35 96.8604 1860.08 96.8604C1815.13 96.8604 1787.61 80.0044 1757.38 61.4961C1720.59 38.9634 1679.8 13.9814 1598.7 13.9814C1520.54 13.9814 1488.86 32.4277 1459.08 49.7725C1432.66 65.1621 1407.72 79.6851 1353.12 79.6851C1294.55 79.6851 1246.77 62.9756 1199.4 46.4097C1152.84 30.126 1106.68 13.9814 1051.05 13.9814C999.301 13.9814 966.561 32.4775 931.987 52.0088C893.378 73.8203 852.482 96.9233 780.269 97Z" fill="#78C6FF"/>
</svg>
