<svg width="30" height="31" viewBox="0 0 30 31" fill="none" xmlns="http://www.w3.org/2000/svg">
<g clip-path="url(#clip0_147_4812)">
<path d="M15.0311 3.28827C19.0263 3.28827 19.4994 3.30584 21.0707 3.37612C22.5309 3.44055 23.3194 3.68655 23.8451 3.89155C24.5402 4.16098 25.0425 4.48898 25.5624 5.01026C26.0881 5.5374 26.4093 6.03526 26.678 6.73226C26.8824 7.2594 27.1278 8.05596 27.192 9.51439C27.2621 11.0958 27.2796 11.5702 27.2796 15.5707C27.2796 19.5769 27.2621 20.0514 27.192 21.6269C27.1278 23.0912 26.8824 23.8819 26.678 24.4091C26.4093 25.106 26.0822 25.6098 25.5624 26.131C25.0367 26.6582 24.5402 26.9803 23.8451 27.2498C23.3194 27.4548 22.5251 27.7008 21.0707 27.7652C19.4936 27.8355 19.0205 27.853 15.0311 27.853C11.0358 27.853 10.5627 27.8355 8.99148 27.7652C7.53123 27.7008 6.7427 27.4548 6.21701 27.2498C5.52193 26.9803 5.0196 26.6523 4.49976 26.131C3.97407 25.6039 3.65281 25.106 3.38413 24.4091C3.17969 23.8819 2.93437 23.0853 2.87012 21.6269C2.80003 20.0455 2.7825 19.5711 2.7825 15.5707C2.7825 11.5644 2.80003 11.09 2.87012 9.51439C2.93437 8.05011 3.17969 7.2594 3.38413 6.73226C3.65281 6.03526 3.97991 5.53155 4.49976 5.01026C5.02544 4.48312 5.52193 4.16098 6.21701 3.89155C6.7427 3.68655 7.53707 3.44055 8.99148 3.37612C10.5627 3.30584 11.0358 3.28827 15.0311 3.28827ZM15.0311 0.588135C10.9716 0.588135 10.4634 0.605706 8.86882 0.675992C7.28007 0.746277 6.1878 1.00399 5.24156 1.37299C4.25443 1.75956 3.41917 2.26913 2.58975 3.1067C1.75449 3.93841 1.24632 4.77598 0.860818 5.75997C0.492835 6.71468 0.235832 7.80411 0.16574 9.39725C0.095648 11.0021 0.078125 11.5117 0.078125 15.5824C0.078125 19.6531 0.095648 20.1626 0.16574 21.7616C0.235832 23.3548 0.492835 24.4501 0.860818 25.3989C1.24632 26.3888 1.75449 27.2263 2.58975 28.058C3.41917 28.8897 4.25443 29.4052 5.23572 29.7859C6.1878 30.1549 7.27423 30.4126 8.86298 30.4829C10.4576 30.5532 10.9657 30.5707 15.0252 30.5707C19.0847 30.5707 19.5929 30.5532 21.1875 30.4829C22.7762 30.4126 23.8685 30.1549 24.8147 29.7859C25.796 29.4052 26.6313 28.8897 27.4607 28.058C28.2901 27.2263 28.8041 26.3888 29.1838 25.4048C29.5518 24.4501 29.8088 23.3606 29.8789 21.7675C29.949 20.1685 29.9665 19.6589 29.9665 15.5882C29.9665 11.5175 29.949 11.008 29.8789 9.40896C29.8088 7.81582 29.5518 6.72054 29.1838 5.77169C28.8158 4.77598 28.3076 3.93841 27.4724 3.1067C26.643 2.27499 25.8077 1.75956 24.8264 1.37885C23.8743 1.00985 22.7879 0.752134 21.1992 0.681849C19.5987 0.605706 19.0906 0.588135 15.0311 0.588135Z" fill="white"/>
<path d="M15.031 7.88037C10.7904 7.88037 7.3501 11.3302 7.3501 15.5825C7.3501 19.8348 10.7904 23.2846 15.031 23.2846C19.2716 23.2846 22.7119 19.8348 22.7119 15.5825C22.7119 11.3302 19.2716 7.88037 15.031 7.88037ZM15.031 20.5786C12.2799 20.5786 10.0486 18.3412 10.0486 15.5825C10.0486 12.8238 12.2799 10.5864 15.031 10.5864C17.7821 10.5864 20.0134 12.8238 20.0134 15.5825C20.0134 18.3412 17.7821 20.5786 15.031 20.5786Z" fill="white"/>
<path d="M24.809 7.57573C24.809 8.57144 24.003 9.37387 23.0158 9.37387C22.0229 9.37387 21.2227 8.56558 21.2227 7.57573C21.2227 6.58001 22.0287 5.77759 23.0158 5.77759C24.003 5.77759 24.809 6.58587 24.809 7.57573Z" fill="white"/>
</g>
<defs>
<clipPath id="clip0_147_4812">
<rect width="29.9059" height="29.9885" fill="white" transform="translate(0.078125 0.588135)"/>
</clipPath>
</defs>
</svg>
