<svg width="31" height="31" viewBox="0 0 31 31" fill="none" xmlns="http://www.w3.org/2000/svg">
<path d="M15.5 0C6.9409 0 0 6.9409 0 15.5C0 24.0591 6.9409 31 15.5 31C24.0591 31 31 24.0591 31 15.5C31 6.9409 24.0622 0 15.5 0ZM7.6477 16.0208L7.7128 15.9154L11.7459 9.6069C11.8048 9.517 11.9443 9.5263 11.9877 9.6255C12.6604 11.1352 13.2432 13.0138 12.9704 14.1825C12.8557 14.663 12.5364 15.314 12.1768 15.9154C12.1303 16.0022 12.0807 16.089 12.0249 16.1727C12.0001 16.2099 11.9567 16.2316 11.9102 16.2316H7.7655C7.6539 16.2316 7.5888 16.1107 7.6477 16.0208ZM25.6184 18.1908C25.6184 18.2497 25.5843 18.2993 25.5347 18.321C25.2216 18.4543 24.1521 18.9472 23.7088 19.5641C22.5742 21.142 21.7093 23.3988 19.7718 23.3988H11.6932C8.8288 23.3988 6.51 21.0707 6.51 18.197V18.104C6.51 18.0296 6.572 17.9676 6.6495 17.9676H11.1507C11.2406 17.9676 11.3057 18.0482 11.2995 18.1381C11.2654 18.4295 11.3212 18.7302 11.4607 19.003C11.7273 19.5455 12.2822 19.8834 12.8805 19.8834H15.1094V18.1443H12.9053C12.7937 18.1443 12.7255 18.0141 12.7906 17.9211C12.8154 17.8839 12.8402 17.8467 12.8712 17.8033C13.0789 17.5057 13.3765 17.0469 13.6741 16.523C13.8756 16.1696 14.0709 15.7914 14.229 15.4132C14.26 15.345 14.2848 15.2737 14.3127 15.2055C14.3561 15.0846 14.3995 14.9699 14.4305 14.8583C14.4615 14.7622 14.4894 14.663 14.5142 14.57C14.5886 14.2476 14.6196 13.9066 14.6196 13.5532C14.6196 13.4137 14.6134 13.268 14.601 13.1316C14.5948 12.9797 14.5762 12.8278 14.5576 12.6759C14.5452 12.5426 14.5204 12.4093 14.4956 12.2729C14.4615 12.0714 14.4181 11.8699 14.3685 11.6684L14.3499 11.5909C14.3127 11.4514 14.2786 11.3212 14.2352 11.1817C14.1081 10.7477 13.9655 10.323 13.8105 9.9262C13.7547 9.7681 13.6927 9.6162 13.6276 9.4674C13.5346 9.238 13.4385 9.0303 13.3517 8.835C13.3052 8.7451 13.268 8.6645 13.2308 8.5808C13.1874 8.4878 13.144 8.3948 13.0975 8.3049C13.0665 8.2367 13.0293 8.1716 13.0045 8.1096L12.7317 7.6074C12.6945 7.5392 12.7565 7.4555 12.8309 7.4772L14.5359 7.9391H14.5421C14.5452 7.9391 14.5452 7.9391 14.5483 7.9391L14.7715 8.0042L15.0195 8.0724L15.1094 8.0972V7.0866C15.1094 6.5968 15.5 6.2 15.9867 6.2C16.2285 6.2 16.4486 6.2992 16.6036 6.4604C16.7617 6.6216 16.8609 6.8417 16.8609 7.0866V8.5901L17.0438 8.6397C17.0562 8.6459 17.0717 8.6521 17.0841 8.6614C17.1275 8.6924 17.1926 8.742 17.2732 8.804C17.3383 8.8536 17.4065 8.9156 17.4871 8.9807C17.6514 9.114 17.8498 9.2845 18.0637 9.4798C18.1195 9.5294 18.1753 9.579 18.228 9.6317C18.5039 9.889 18.8139 10.1897 19.1115 10.5245C19.1952 10.6206 19.2758 10.7136 19.3595 10.8159C19.4401 10.9182 19.53 11.0174 19.6044 11.1166C19.7067 11.2499 19.8121 11.3894 19.9082 11.5351C19.9516 11.6033 20.0043 11.6746 20.0446 11.7428C20.1686 11.9257 20.274 12.1148 20.3763 12.3039C20.4197 12.3907 20.4631 12.4868 20.5003 12.5798C20.615 12.834 20.7049 13.0913 20.7607 13.3517C20.7793 13.4075 20.7917 13.4664 20.7979 13.5222V13.5346C20.8165 13.609 20.8227 13.6896 20.8289 13.7733C20.8537 14.0368 20.8413 14.3034 20.7855 14.57C20.7607 14.6816 20.7297 14.787 20.6925 14.9017C20.6522 15.0102 20.615 15.1218 20.5654 15.2303C20.4693 15.4504 20.3577 15.6736 20.2244 15.8782C20.181 15.9557 20.1283 16.0363 20.0787 16.1138C20.0229 16.1944 19.964 16.2719 19.9144 16.3463C19.8431 16.4424 19.7687 16.5416 19.6912 16.6315C19.623 16.7245 19.5548 16.8175 19.4773 16.9012C19.3719 17.0283 19.2696 17.1461 19.1611 17.2608C19.0991 17.3352 19.0309 17.4127 18.9596 17.4809C18.8914 17.5584 18.8201 17.6266 18.7581 17.6886C18.6496 17.7971 18.5628 17.8777 18.4884 17.949L18.3117 18.1071C18.2869 18.1319 18.2528 18.1443 18.2187 18.1443H16.8609V19.8834H18.569C18.9503 19.8834 19.313 19.7501 19.6075 19.499C19.7067 19.4122 20.1438 19.034 20.6615 18.4636C20.6801 18.4419 20.7018 18.4295 20.7266 18.4233L25.4417 17.0593C25.5316 17.0345 25.6184 17.0996 25.6184 17.1926V18.1908Z" fill="white"/>
</svg>
