<svg width="31" height="31" viewBox="0 0 31 31" fill="none" xmlns="http://www.w3.org/2000/svg">
<g clip-path="url(#clip0_147_4810)">
<path d="M9.77727 27.4117C21.0598 27.4117 27.2326 18.0362 27.2326 9.90827C27.2326 9.6447 27.2267 9.37527 27.215 9.1117C28.4158 8.24091 29.4521 7.16232 30.2751 5.9266C29.1568 6.42553 27.9694 6.75139 26.7536 6.89302C28.0338 6.12353 28.9923 4.9147 29.4516 3.49062C28.2472 4.20633 26.9301 4.71121 25.5568 4.9836C24.6314 3.99767 23.408 3.34486 22.0755 3.12611C20.7431 2.90737 19.3759 3.13486 18.1853 3.77342C16.9948 4.41198 16.0471 5.42605 15.4889 6.65883C14.9307 7.89162 14.7931 9.27446 15.0973 10.5936C12.6586 10.4708 10.2729 9.8356 8.09484 8.72902C5.91674 7.62244 3.99486 6.06922 2.4538 4.17005C1.67055 5.52418 1.43087 7.12657 1.78348 8.65154C2.13609 10.1765 3.05453 11.5096 4.35213 12.38C3.37797 12.349 2.42515 12.086 1.57239 11.6127V11.6888C1.57152 13.1099 2.06144 14.4874 2.95889 15.5872C3.85633 16.687 5.10591 17.4413 6.4952 17.7217C5.59279 17.9693 4.64568 18.0053 3.72714 17.8271C4.11917 19.0492 4.88192 20.1181 5.90894 20.8846C6.93596 21.6512 8.17601 22.077 9.45601 22.1028C7.28294 23.8145 4.59857 24.7429 1.83524 24.7385C1.34518 24.7378 0.85561 24.7076 0.369141 24.6483C3.17639 26.4543 6.44197 27.4135 9.77727 27.4117Z" fill="white"/>
</g>
<defs>
<clipPath id="clip0_147_4810">
<rect width="29.906" height="29.9885" fill="white" transform="translate(0.369141 0.234619)"/>
</clipPath>
</defs>
</svg>
