<svg width="1728" height="177" viewBox="0 0 1728 177" fill="none" xmlns="http://www.w3.org/2000/svg">
<g clip-path="url(#clip0_272_2697)">
<path fill-rule="evenodd" clip-rule="evenodd" d="M1903.02 0.351562L1903.02 96.9996H604.195C676.454 96.9387 717.365 73.8273 755.988 52.0083C790.561 32.477 823.301 13.9812 875.053 13.9812C930.682 13.9812 976.845 30.126 1023.4 46.4095C1070.77 62.9753 1118.55 79.6847 1177.12 79.6847C1231.72 79.6847 1256.66 65.1619 1283.08 49.7719C1312.86 32.4273 1344.54 13.9812 1422.7 13.9812C1503.8 13.9812 1544.59 38.9632 1581.38 61.4957C1611.61 80.0042 1639.13 96.8599 1684.08 96.8599C1747.35 96.8599 1805.25 57.9586 1847.53 29.5523C1871.84 13.2165 1890.99 0.351562 1903.02 0.351562ZM-175.024 96.9996H603.622C600.488 96.9969 597.296 96.951 594.042 96.8599C531.373 95.1042 487.482 72.5403 446.313 51.3762C410.771 33.1044 377.258 15.876 335.444 13.9813C286.52 11.7644 239.562 31.26 195.439 49.5787C158.171 65.0515 122.925 79.6847 90.225 79.6847C13.952 79.6847 -116.429 38.2461 -175.024 0.351562V96.9996ZM1903 177V97H-175V177H1903Z" fill="#53C6D9"/>
</g>
<defs>
<clipPath id="clip0_272_2697">
<rect width="1728" height="177" fill="white"/>
</clipPath>
</defs>
</svg>
